<?xml version="1.0" standalone="no"?>
<!DOCTYPE svg PUBLIC "-//W3C//DTD SVG 20010904//EN"
 "http://www.w3.org/TR/2001/REC-SVG-20010904/DTD/svg10.dtd">
<svg version="1.0" xmlns="http://www.w3.org/2000/svg"
 width="512.000000pt" height="512.000000pt" viewBox="0 0 512.000000 512.000000"
 preserveAspectRatio="xMidYMid meet">
<metadata>
Created by potrace 1.16, written by Peter Selinger 2001-2019
</metadata>
<g transform="translate(0.000000,512.000000) scale(0.100000,-0.100000)"
fill="#510d82" stroke="none">
<path d="M3390 5115 c-8 -2 -49 -9 -90 -15 -105 -17 -249 -64 -355 -117 -214
-106 -382 -270 -473 -461 -36 -75 -37 -80 -37 -192 0 -114 1 -117 39 -194 98
-199 332 -323 541 -287 92 16 112 26 130 61 20 39 13 79 -20 110 -22 21 -30
22 -87 15 -140 -19 -230 3 -323 79 -84 69 -125 199 -92 294 57 165 248 345
465 441 131 57 257 82 439 88 142 5 166 3 189 -11 47 -31 62 -104 31 -144 -6
-7 -60 -46 -121 -86 -155 -103 -269 -219 -349 -357 -44 -75 -40 -87 72 -204
382 -402 585 -1060 663 -2155 27 -378 14 -1255 -28 -1837 -7 -89 -6 -92 19
-117 35 -35 98 -36 131 -3 19 19 24 38 30 113 70 937 57 1835 -35 2479 -81
570 -231 1051 -425 1361 -24 40 -44 74 -44 76 0 9 163 40 212 41 26 0 53 -4
59 -10 6 -6 15 -49 20 -94 17 -154 60 -232 204 -364 108 -99 115 -115 91 -216
-45 -195 -30 -299 71 -488 l67 -126 1 -210 0 -210 43 -122 c55 -157 55 -187 4
-340 -69 -201 -66 -289 15 -536 41 -126 47 -152 47 -232 0 -81 -3 -98 -36
-176 -83 -197 -112 -320 -112 -484 0 -171 34 -276 125 -379 63 -72 115 -106
159 -106 51 0 80 26 87 77 5 41 4 43 -65 110 -78 75 -104 122 -122 222 -20
113 10 279 83 459 61 148 71 196 64 311 -4 80 -13 120 -53 236 -40 119 -48
155 -52 236 -4 93 -3 100 39 220 38 109 44 134 44 209 0 75 -5 99 -45 210
l-45 125 0 212 0 212 -72 139 c-96 186 -102 221 -66 407 17 87 12 163 -13 223
-9 22 -60 81 -124 143 -124 120 -144 155 -160 275 -19 140 -50 192 -139 230
-55 25 -185 20 -318 -10 -61 -14 -120 -26 -130 -26 -11 0 -34 15 -51 33 l-32
33 30 43 c54 74 156 165 256 226 156 97 198 157 197 285 0 87 -16 132 -70 191
-69 76 -94 84 -293 86 -96 1 -182 0 -190 -2z"/>
<path d="M1955 4353 c-259 -159 -521 -423 -662 -664 l-44 -77 -88 -36 c-235
-97 -455 -258 -582 -425 -60 -79 -131 -222 -155 -311 -27 -99 -25 -292 4 -393
72 -253 256 -442 513 -528 91 -30 352 -89 397 -89 12 0 22 -2 22 -5 0 -3 -23
-56 -51 -118 -212 -463 -329 -961 -346 -1468 l-6 -187 26 -26 c32 -32 93 -36
128 -7 22 18 24 28 31 173 3 84 7 153 7 154 1 0 36 -4 79 -9 111 -13 411 -2
455 17 60 25 76 92 34 142 -22 25 -27 26 -98 23 -112 -6 -423 -3 -441 3 -14 6
-13 19 3 130 10 68 31 179 46 246 l26 124 71 -9 c89 -10 522 -11 558 0 61 17
82 112 34 153 -24 21 -31 22 -238 17 -186 -5 -349 4 -364 20 -12 12 97 294
190 491 l56 118 72 -6 c89 -8 350 8 490 30 234 36 545 127 573 167 19 28 19
87 0 114 -27 39 -72 39 -188 0 -445 -151 -928 -172 -1382 -61 -132 33 -196 58
-277 111 -128 84 -222 220 -253 368 -18 88 -18 142 0 229 57 270 299 506 680
661 50 21 95 42 102 47 7 5 31 44 53 86 123 228 347 461 602 626 49 32 92 66
98 76 16 30 12 75 -11 104 -31 40 -88 36 -164 -11z"/>
<path d="M2431 3719 c-96 -106 -240 -194 -380 -231 -56 -15 -111 -20 -209 -22
-128 -1 -135 -2 -153 -25 -27 -33 -25 -96 4 -125 19 -19 39 -24 103 -30 73 -6
241 6 278 20 13 5 16 -1 16 -25 0 -55 24 -98 63 -110 38 -13 62 -7 95 22 19
18 22 30 22 103 0 73 2 83 20 89 31 10 160 98 214 146 105 93 132 164 81 214
-18 19 -35 25 -66 25 -37 0 -46 -5 -88 -51z"/>
<path d="M3200 3276 c-20 -7 -77 -36 -126 -65 -121 -69 -153 -77 -219 -56 -78
24 -135 -8 -135 -78 0 -72 65 -111 185 -111 95 1 134 14 266 89 52 30 102 55
110 55 23 0 58 -42 65 -78 5 -24 0 -42 -20 -76 -30 -51 -32 -75 -11 -116 10
-20 27 -32 53 -40 52 -14 77 -43 77 -90 0 -80 -55 -119 -212 -152 -83 -17
-121 -19 -251 -15 -153 6 -154 6 -178 -18 -17 -17 -24 -35 -24 -64 0 -85 77
-109 324 -98 146 6 300 40 372 82 96 56 148 149 148 265 1 85 -22 146 -73 194
-27 26 -29 32 -24 85 8 91 -17 162 -80 225 -73 72 -159 94 -247 62z"/>
<path d="M967 2973 c-37 -40 -97 -159 -97 -194 0 -20 10 -40 29 -60 53 -52
116 -34 156 45 14 28 37 71 51 96 28 50 26 81 -8 118 -32 33 -96 31 -131 -5z"/>
<path d="M2308 1675 c-30 -17 -48 -65 -48 -132 0 -63 -33 -220 -80 -378 -103
-350 -129 -447 -144 -535 -18 -108 -21 -299 -5 -386 15 -84 66 -211 92 -229
35 -24 94 -19 123 11 32 31 29 66 -11 169 -24 60 -29 88 -32 195 -6 158 10
243 113 586 87 293 110 394 123 529 10 114 2 149 -40 170 -35 19 -56 18 -91 0z"/>
</g>
</svg>
